<svg width="80" height="20" viewBox="0 0 80 20" fill="none" xmlns="http://www.w3.org/2000/svg">
<path d="M54.8136 2.28369H0.158203V2.58828H54.8136V2.28369Z" fill="#25262A"/>
<path d="M30.1946 0.578125H0.158203V0.882695H30.1946V0.578125Z" fill="#25262A"/>
<path d="M78.2276 14.3765H23.5723V14.6811H78.2276V14.3765Z" fill="#25262A"/>
<path d="M78.0941 16.3853H68.5703V16.8672H78.0941V16.3853Z" fill="#25262A"/>
<path d="M61.7207 6.66986L60.9424 7.58363H59.2155L59.9583 6.66986H61.7207ZM65.7079 10.3859H65.1662V10.8123H65.7079V10.3859ZM42.8947 8.74108H44.5199V6.85261H42.8947V8.74108ZM61.8303 6.4871L62.3594 5.817H60.5728L60.066 6.4871H61.8303ZM59.0006 7.94914L58.7087 8.23729L58.4149 7.94914H56.685L57.9424 9.36732V10.0204H59.5074V9.36732L60.7233 7.94914H59.0006ZM42.8947 9.53302H44.5199V9.04567H42.8947V9.53302ZM23.1086 9.53302H24.8356C24.8266 9.51901 24.7314 9.45078 24.6971 9.29544C24.6628 9.14071 24.6454 8.98354 24.6454 8.82393C24.6454 8.5833 24.6857 8.3512 24.7658 8.12642C24.8458 7.90163 24.9849 7.70242 25.1823 7.52881C25.3797 7.35519 25.644 7.21569 25.9744 7.11151C26.3049 7.00734 26.7208 6.95496 27.2222 6.95496C27.5485 6.95496 27.8422 6.97749 28.1023 7.02257C28.3629 7.06765 28.6019 7.12553 28.8198 7.19619C29.0371 7.26747 29.2471 7.34666 29.4277 7.43499C29.6083 7.52332 29.7732 7.61226 29.9538 7.70242V6.66986H27.3053V6.4871H29.9538V6.25074C29.713 6.16362 29.5294 6.08565 29.32 6.0162C29.1111 5.94676 28.8896 5.88645 28.6663 5.83588C28.443 5.78532 28.2046 5.74694 27.9572 5.72075C27.7098 5.69455 27.4426 5.68176 27.159 5.68176C26.5577 5.68176 26.0039 5.74694 25.4983 5.87731C24.9927 6.00767 24.5575 6.20383 24.1921 6.46639C24.1825 6.47309 24.1735 6.4804 24.1644 6.48771H26.5222V6.60955H24.0242C23.7106 6.85688 23.5222 7.09629 23.3398 7.449C23.1363 7.84193 23.0346 8.30003 23.0346 8.82454C23.0346 9.17056 23.0196 9.24427 23.1086 9.53302ZM44.5199 6.4871V5.817H42.8947V6.4871H44.5199ZM28.6344 10.3859H29.9532V9.94544C29.7726 10.038 29.6071 10.1288 29.4271 10.2171C29.2465 10.3055 28.6976 10.3688 28.6344 10.3859ZM23.3392 10.1995C23.3723 10.2634 23.4084 10.325 23.4457 10.3859H25.6024C25.4375 10.3079 25.2961 10.2177 25.1817 10.1148C25.1263 10.0654 25.077 10.0131 25.0306 9.95945H23.2326C23.2645 10.0417 23.2995 10.1227 23.3392 10.1995ZM33.0231 7.1572V5.817H31.3978V7.1572H33.0231ZM33.0231 8.61924V7.52271H31.3978V8.61924H31.6386V8.802H31.3978V10.8732H33.0231V10.0204H32.2405V9.71578H33.0231V8.802H32.2405V8.61924H33.0231ZM72.3292 9.35027H72.8709V8.49741H72.3292V9.35027ZM65.1662 7.94914H65.7079V7.27904H65.1662V7.94914ZM70.5896 7.94914C70.6131 7.82487 70.6263 7.69268 70.6263 7.55074C70.6263 7.41123 70.6149 7.4021 70.5926 7.27904H70.0316C70.0611 7.39418 70.0767 7.40271 70.0767 7.55074C70.0767 7.70121 70.0611 7.83401 70.0298 7.94914H70.5896ZM77.7466 8.55833V9.97163C77.7466 9.98808 77.7628 10.0045 77.7622 10.0204H78.2979C78.2991 9.98991 78.2883 9.95884 78.2883 9.92777V8.55833H77.7466ZM72.3292 9.59394V9.92777C72.3292 9.95884 72.3454 9.98991 72.3466 10.0204H72.8823C72.8817 10.0039 72.8709 9.98808 72.8709 9.97163V9.59394H72.3292ZM72.8709 7.09628V5.817H72.3292V7.09628H72.8709ZM72.8709 7.27904H72.3292V7.94914H72.8709V7.27904ZM78.2883 7.09628V5.817H77.7466V7.09628H78.2883ZM65.7079 6.91353V6.36526H67.5234C67.9959 6.36526 68.395 6.36892 68.7206 6.39938C69.0456 6.42984 69.3087 6.48284 69.5091 6.56934C69.7096 6.65585 69.8546 6.77586 69.9431 6.93363C69.9714 6.98359 69.9943 7.03598 70.0135 7.09568H70.5794C70.5559 6.98968 70.5246 6.89038 70.4843 6.79779C70.3897 6.58335 70.2399 6.40425 70.0352 6.26109C69.8306 6.11794 69.5675 6.00219 69.2473 5.93092C68.9265 5.86025 68.5412 5.81639 68.0922 5.81639H65.1662V6.91292H65.7079V6.91353ZM77.7466 7.27904V7.94914H78.2883V7.27904H77.7466ZM58.9061 10.9951V10.8123H59.508V10.264H57.943V11.787H59.508V10.9951H58.9061ZM58.2 7.58363L56.8367 5.817H55.0501L56.4665 7.58363H58.2ZM44.5199 9.71578H42.8947V11.787H48.7937V10.5077H44.5199V9.71578ZM62.0963 11.787H63.7216V10.264H62.0963V11.787ZM52.2247 8.07098H50.6596V8.61924H52.2247V8.07098ZM50.6596 9.04567V11.787H52.2247V9.04567H50.6596ZM48.1315 7.1572H50.6596V7.82731H52.2247V7.1572H54.7528V5.817H48.1315V7.1572ZM17.4932 10.0204V9.35027H21.5864V8.74108H18.9981V8.55833H21.5864V8.07098H17.4932V7.09628H21.8271V6.54802H20.0815V6.42618H21.8271V5.817H15.868V10.0204H17.4932ZM69.3881 10.3859L70.4975 11.787H71.1717L70.0202 10.3859H69.3881ZM65.1662 10.9341V11.787H65.7079V10.9341H65.1662ZM69.2226 10.0813H69.8534L69.1576 9.17177C69.6729 9.07309 70.0467 8.89033 70.2784 8.62168C70.4114 8.46756 70.5053 8.28358 70.5619 8.07098H69.9889C69.9744 8.1057 69.9588 8.13921 69.9413 8.16967C69.851 8.3244 69.7042 8.44502 69.5007 8.5303C69.2972 8.61559 69.0318 8.67224 68.7056 8.69966C68.3787 8.72707 67.979 8.74108 67.5065 8.74108H65.7079V8.07098H65.1662V9.83761H65.7079V9.22843H68.0928C68.1813 9.22843 68.2673 9.23757 68.3504 9.23452C68.4335 9.23147 68.5153 9.23269 68.5954 9.2266L69.2226 10.0813ZM77.758 10.0813C77.7423 10.2409 77.6924 10.3932 77.6075 10.5388C77.5028 10.7167 77.3475 10.8726 77.1416 11.006C76.9358 11.1394 76.6805 11.2448 76.3772 11.3234C76.0738 11.4014 75.7229 11.441 75.325 11.441C74.9241 11.441 74.572 11.402 74.2686 11.3234C73.9652 11.2454 73.71 11.1394 73.5042 11.006C73.2983 10.8726 73.143 10.7173 73.0383 10.5388C72.9642 10.4121 72.9167 10.2799 72.895 10.1422H72.3557C72.3785 10.3579 72.4369 10.5577 72.5314 10.7429C72.656 10.9878 72.8426 11.1979 73.0918 11.3734C73.341 11.5488 73.6516 11.684 74.0236 11.7797C74.3956 11.8753 74.8296 11.9228 75.325 11.9228C75.8204 11.9228 76.2538 11.8747 76.6264 11.7797C76.9984 11.684 77.3083 11.5488 77.5563 11.3734C77.8043 11.1979 77.9903 10.9878 78.1149 10.7429C78.2179 10.5406 78.2775 10.3201 78.2955 10.0813H77.758ZM1.94714 7.03537C1.96279 7.02684 2.14999 7.01283 2.26015 6.98968C2.3703 6.96653 2.50634 6.94764 2.66826 6.93302C2.83018 6.9184 3.0252 6.91109 3.25454 6.91109C3.54106 6.91109 3.81975 6.93242 4.09182 6.97384C4.3639 7.01587 4.61551 7.06826 4.84785 7.1304C5.0796 7.19254 5.2993 7.25833 5.48229 7.32838C5.66527 7.39783 5.81636 7.46058 5.93675 7.5154V6.13317C5.75617 6.07225 5.53586 6.01437 5.31736 5.95955C5.09825 5.90472 4.86531 5.85599 4.63055 5.81395C4.3958 5.77192 4.15443 5.73963 3.91245 5.71587C3.67047 5.69273 3.43331 5.68115 3.20458 5.68115C2.99571 5.68115 2.7742 5.68968 2.54245 5.70735C2.31071 5.72501 2.08137 5.75669 1.85505 5.80299C1.62872 5.84929 1.41323 5.91447 1.20857 5.99854C1.00392 6.0826 0.823338 6.19165 0.667437 6.32689C0.511537 6.46152 0.38754 6.62478 0.296046 6.81606C0.255115 6.90196 0.223212 6.93485 0.200941 7.03537H1.94714ZM4.30611 9.7304C4.45479 9.78401 4.57217 9.84614 4.65824 9.91741C4.74432 9.98869 4.78706 10.0715 4.78706 10.1672C4.78706 10.2281 4.76539 10.2921 4.72265 10.3585C4.67991 10.4249 4.59805 10.4864 4.47766 10.543C4.35728 10.5997 4.19054 10.646 3.97746 10.6819C3.76437 10.7179 3.48869 10.7362 3.15101 10.7362C2.57857 10.7362 2.05188 10.674 1.54927 10.5491C1.04665 10.4249 0.578954 10.2519 0.217795 10.0319V11.4574C0.578954 11.6024 1.02679 11.723 1.52338 11.8205C2.01998 11.9174 2.55509 11.9661 3.13897 11.9661C3.36228 11.9661 3.59523 11.9588 3.84263 11.9442C4.09002 11.9296 4.3338 11.8991 4.57578 11.8528C4.81775 11.8065 5.04829 11.7407 5.2686 11.6548C5.48891 11.5695 5.68273 11.4556 5.85007 11.3137C6.0174 11.1717 6.15103 10.9981 6.25155 10.7922C6.35208 10.5863 6.40204 10.3402 6.40204 10.0533C6.40204 9.91011 6.38398 9.83822 6.34847 9.71517C6.34847 9.71578 4.23328 9.7042 4.30611 9.7304ZM7.92252 10.4468V11.787H9.48754V10.4468H7.92252ZM4.77201 8.38532C4.5499 8.30978 4.32116 8.24399 4.0846 8.18733C3.84864 8.13068 3.61931 8.0789 3.3972 8.03077C3.17508 7.98326 2.96561 7.93696 2.76818 7.89188C2.57074 7.8468 2.51777 7.8602 2.3691 7.80964L2.00854 7.82792H0.164223C0.179271 7.99179 0.2196 7.95645 0.286415 8.08804C0.372491 8.25739 0.489868 8.40664 0.638545 8.53579C0.787222 8.66493 0.960578 8.77641 1.15801 8.87023C1.35544 8.96465 1.56552 9.04689 1.78703 9.11817C2.00914 9.18944 2.23727 9.25097 2.47203 9.30275C2.70678 9.35514 2.93491 9.40326 3.15703 9.44834C3.29788 9.47698 3.43271 9.50561 3.56393 9.53363H6.30633C6.2961 9.50804 6.28526 9.48368 6.27322 9.45931C6.18715 9.28569 6.06977 9.13157 5.92109 8.99877C5.77242 8.86536 5.59906 8.749 5.40163 8.6491C5.20359 8.54797 4.99412 8.46025 4.77201 8.38532ZM1.89718 7.57449C1.81111 7.50931 1.76837 7.43316 1.76837 7.34605C1.76837 7.31986 1.77319 7.29122 1.78342 7.25894C1.79365 7.22726 1.81532 7.19558 1.85023 7.1633C1.85264 7.16086 1.85565 7.15903 1.85806 7.1566H0.187698C0.168436 7.26259 0.158203 7.3759 0.158203 7.49774C0.158203 7.52637 0.158806 7.555 0.160611 7.58302H1.91163C1.90621 7.58059 1.9014 7.57754 1.89718 7.57449ZM17.4932 10.3859H15.868V11.1169H18.6971V11.2387H15.868V11.787H21.8873V10.5077H17.4932V10.3859ZM28.3792 10.5686C28.2895 10.5875 28.1974 10.6058 28.1017 10.621C27.841 10.6631 27.5479 10.6838 27.2216 10.6838C26.8864 10.6838 26.5908 10.66 26.335 10.6119C26.1135 10.5705 25.9173 10.515 25.7439 10.4462H23.4848C23.6714 10.7307 23.9068 10.9762 24.1921 11.1809C24.5569 11.4434 24.9921 11.6396 25.4977 11.7699C26.0027 11.9003 26.5565 11.9655 27.1578 11.9655C27.4413 11.9655 27.7068 11.9527 27.9542 11.9265C28.2016 11.9003 28.4375 11.8619 28.6609 11.8114C28.8842 11.7608 29.1111 11.7005 29.32 11.631C29.5288 11.5616 29.713 11.483 29.9538 11.3965V10.568H28.3792V10.5686ZM31.3978 10.9341V11.787H33.0231V10.9341H31.3978ZM13.9966 6.40547C13.8064 6.22454 13.559 6.07529 13.2556 5.97539C12.9523 5.87548 12.5827 5.817 12.1475 5.817H7.92252V7.4618H9.48754V7.09628H11.8044C12.0132 7.09628 12.1896 7.117 12.3329 7.14746C12.4761 7.17792 12.5917 7.22787 12.6808 7.29122C12.7693 7.35519 12.8331 7.43804 12.8716 7.53794C12.9101 7.63785 12.9294 7.75786 12.9294 7.89736C12.9294 8.03686 12.9101 8.15383 12.8716 8.24947C12.8331 8.34511 12.7693 8.42309 12.6808 8.48218C12.5917 8.54188 12.4761 8.57051 12.3329 8.59488C12.1896 8.61924 12.0138 8.61864 11.8044 8.61864H9.48754V7.8267H7.92252V9.34966H11.4739V9.65425H7.92252V10.1416H9.48754V9.89792H12.1481C12.5833 9.89792 12.9523 9.85772 13.2562 9.75598C13.5596 9.65486 13.8064 9.5184 13.9972 9.33747C14.1874 9.15654 14.3259 8.94333 14.4113 8.69235C14.4974 8.44197 14.5402 8.16845 14.5402 7.86995C14.5402 7.57145 14.4974 7.29853 14.4113 7.04938C14.3253 6.80022 14.1868 6.5864 13.9966 6.40547ZM38.869 9.16751L39.0357 9.53302H36.8796L37.5875 8.07098H36.5745V7.82731H37.6784L37.9625 7.31133L38.2442 7.82731H38.5608V8.07098H38.3339L38.7793 8.98475H40.472L38.8425 5.817H37.0644L35.1202 9.59394H35.6114V9.89853H34.9685L33.9771 11.787H35.7552L36.309 10.6905H39.5986L40.1523 11.787H41.9304L40.5634 9.16751H38.869Z" fill="#25262A"/>
<path d="M0.384766 19.0364V16.0002H0.946194L1.85905 17.4359L2.77191 16.0002H3.33334V19.0364H2.80619V16.859L1.85905 18.2904H1.84191L0.903337 16.8677V19.0364H0.384766Z" fill="#25262A"/>
<path d="M6.18214 19.0364H5.66785V18.7545C5.48499 18.9742 5.24071 19.0841 4.93499 19.0841C4.70928 19.0841 4.51785 19.0219 4.36071 18.8976C4.20642 18.7704 4.12928 18.594 4.12928 18.3684C4.12928 18.1226 4.21356 17.9361 4.38214 17.8089C4.55071 17.6817 4.77214 17.6181 5.04642 17.6181C5.26642 17.6181 5.47499 17.6499 5.67214 17.7135V17.6701C5.67214 17.5111 5.62356 17.3896 5.52642 17.3058C5.43214 17.2219 5.29499 17.18 5.11499 17.18C4.90928 17.18 4.69356 17.2277 4.46785 17.3231L4.32642 16.9024C4.60642 16.7752 4.89356 16.7116 5.18785 16.7116C5.51642 16.7116 5.76356 16.7954 5.92928 16.9631C6.09785 17.1308 6.18214 17.3694 6.18214 17.6788V19.0364ZM5.68071 18.2079V18.0778C5.52642 18.0171 5.35356 17.9867 5.16214 17.9867C4.99928 17.9867 4.87214 18.0186 4.78071 18.0822C4.68928 18.1458 4.64356 18.2354 4.64356 18.3511C4.64356 18.4552 4.68499 18.5376 4.76785 18.5983C4.85071 18.659 4.95499 18.6894 5.08071 18.6894C5.25499 18.6894 5.39785 18.6446 5.50928 18.5549C5.62356 18.4653 5.68071 18.3496 5.68071 18.2079Z" fill="#25262A"/>
<path d="M7.037 19.0364V16.7463H7.55558V17.2624C7.71558 16.872 7.98272 16.6855 8.35701 16.7029V17.2581H8.32701C8.09272 17.2581 7.90558 17.3361 7.76558 17.4923C7.62558 17.6455 7.55558 17.8696 7.55558 18.1646V19.0364H7.037Z" fill="#25262A"/>
<path d="M9.04547 19.0364V15.8701H9.56404V17.7612L10.5026 16.7463H11.1326L10.2326 17.6788L11.1626 19.0364H10.5626L9.88118 18.0475L9.56404 18.3814V19.0364H9.04547Z" fill="#25262A"/>
<path d="M12.7063 19.0884C12.3749 19.0884 12.0977 18.9771 11.8749 18.7545C11.6549 18.5318 11.5449 18.2441 11.5449 17.8913C11.5449 17.5588 11.6492 17.2769 11.8577 17.0455C12.0663 16.8142 12.3306 16.6986 12.6506 16.6986C12.9935 16.6986 13.2592 16.8171 13.4477 17.0542C13.6392 17.2884 13.7349 17.5805 13.7349 17.9304C13.7349 17.994 13.732 18.0431 13.7263 18.0778H12.0635C12.092 18.26 12.1649 18.4031 12.282 18.5072C12.3992 18.6084 12.5435 18.659 12.7149 18.659C12.9377 18.659 13.142 18.5679 13.3277 18.3858L13.632 18.659C13.3977 18.9453 13.0892 19.0884 12.7063 19.0884ZM12.0592 17.7308H13.2206C13.2035 17.5545 13.1449 17.4099 13.0449 17.2971C12.9449 17.1843 12.812 17.1279 12.6463 17.1279C12.4892 17.1279 12.3577 17.1843 12.252 17.2971C12.1463 17.407 12.082 17.5516 12.0592 17.7308Z" fill="#25262A"/>
<path d="M15.2523 19.0754C14.818 19.0754 14.6009 18.8513 14.6009 18.4031V17.1973H14.3138V16.7463H14.6009V16.1173H15.1195V16.7463H15.728V17.1973H15.1195V18.3207C15.1195 18.5116 15.2123 18.607 15.398 18.607C15.5095 18.607 15.6166 18.581 15.7195 18.5289V18.9583C15.5823 19.0364 15.4266 19.0754 15.2523 19.0754Z" fill="#25262A"/>
<path d="M16.4897 19.7304V16.7463H17.0082V17.1279C17.2082 16.8417 17.4639 16.6986 17.7754 16.6986C18.0611 16.6986 18.3082 16.807 18.5168 17.0239C18.7254 17.2378 18.8297 17.5284 18.8297 17.8957C18.8297 18.2571 18.7254 18.5463 18.5168 18.7631C18.3082 18.9771 18.0611 19.0841 17.7754 19.0841C17.4639 19.0841 17.2082 18.9496 17.0082 18.6807V19.7304H16.4897ZM17.6554 18.6287C17.8382 18.6287 17.9911 18.5607 18.114 18.4248C18.2397 18.2889 18.3025 18.1096 18.3025 17.887C18.3025 17.6701 18.2397 17.4937 18.114 17.3578C17.9882 17.2219 17.8354 17.154 17.6554 17.154C17.4754 17.154 17.3197 17.2234 17.1882 17.3622C17.0597 17.501 16.9954 17.6788 16.9954 17.8957C16.9954 18.1096 17.0597 18.286 17.1882 18.4248C17.3197 18.5607 17.4754 18.6287 17.6554 18.6287Z" fill="#25262A"/>
<path d="M19.6289 19.0364V15.8701H20.1474V19.0364H19.6289Z" fill="#25262A"/>
<path d="M22.9618 19.0364H22.4475V18.7545C22.2647 18.9742 22.0204 19.0841 21.7147 19.0841C21.4889 19.0841 21.2975 19.0219 21.1404 18.8976C20.9861 18.7704 20.9089 18.594 20.9089 18.3684C20.9089 18.1226 20.9932 17.9361 21.1618 17.8089C21.3304 17.6817 21.5518 17.6181 21.8261 17.6181C22.0461 17.6181 22.2547 17.6499 22.4518 17.7135V17.6701C22.4518 17.5111 22.4032 17.3896 22.3061 17.3058C22.2118 17.2219 22.0747 17.18 21.8947 17.18C21.6889 17.18 21.4732 17.2277 21.2475 17.3231L21.1061 16.9024C21.3861 16.7752 21.6732 16.7116 21.9675 16.7116C22.2961 16.7116 22.5432 16.7954 22.7089 16.9631C22.8775 17.1308 22.9618 17.3694 22.9618 17.6788V19.0364ZM22.4604 18.2079V18.0778C22.3061 18.0171 22.1332 17.9867 21.9418 17.9867C21.7789 17.9867 21.6518 18.0186 21.5604 18.0822C21.4689 18.1458 21.4232 18.2354 21.4232 18.3511C21.4232 18.4552 21.4647 18.5376 21.5475 18.5983C21.6304 18.659 21.7347 18.6894 21.8604 18.6894C22.0347 18.6894 22.1775 18.6446 22.2889 18.5549C22.4032 18.4653 22.4604 18.3496 22.4604 18.2079Z" fill="#25262A"/>
<path d="M24.8624 19.0884C24.5281 19.0884 24.2495 18.9728 24.0267 18.7414C23.8038 18.5101 23.6924 18.2282 23.6924 17.8957C23.6924 17.566 23.8038 17.2841 24.0267 17.0499C24.2524 16.8157 24.5324 16.6986 24.8667 16.6986C25.2324 16.6986 25.5338 16.8301 25.771 17.0933L25.4495 17.4446C25.2695 17.2537 25.0738 17.1583 24.8624 17.1583C24.6767 17.1583 24.521 17.2306 24.3952 17.3752C24.2724 17.5169 24.211 17.6904 24.211 17.8957C24.211 18.1039 24.2738 18.2788 24.3995 18.4205C24.5281 18.5622 24.691 18.633 24.8881 18.633C25.0967 18.633 25.2924 18.5376 25.4752 18.3467L25.7881 18.659C25.6652 18.7978 25.531 18.9048 25.3852 18.98C25.2424 19.0523 25.0681 19.0884 24.8624 19.0884Z" fill="#25262A"/>
<path d="M27.4775 19.0884C27.1461 19.0884 26.8689 18.9771 26.6461 18.7545C26.4261 18.5318 26.3161 18.2441 26.3161 17.8913C26.3161 17.5588 26.4204 17.2769 26.6289 17.0455C26.8375 16.8142 27.1018 16.6986 27.4218 16.6986C27.7647 16.6986 28.0304 16.8171 28.2189 17.0542C28.4104 17.2884 28.5061 17.5805 28.5061 17.9304C28.5061 17.994 28.5032 18.0431 28.4975 18.0778H26.8347C26.8632 18.26 26.9361 18.4031 27.0532 18.5072C27.1704 18.6084 27.3147 18.659 27.4861 18.659C27.7089 18.659 27.9132 18.5679 28.0989 18.3858L28.4032 18.659C28.1689 18.9453 27.8604 19.0884 27.4775 19.0884ZM26.8304 17.7308H27.9918C27.9747 17.5545 27.9161 17.4099 27.8161 17.2971C27.7161 17.1843 27.5832 17.1279 27.4175 17.1279C27.2604 17.1279 27.1289 17.1843 27.0232 17.2971C26.9175 17.407 26.8532 17.5516 26.8304 17.7308Z" fill="#25262A"/>
<path d="M31.5637 19.0798C31.2094 19.0798 30.8894 18.9655 30.6036 18.7371L30.8351 18.3814C31.0808 18.5694 31.3279 18.6634 31.5765 18.6634C31.6879 18.6634 31.7736 18.6417 31.8336 18.5983C31.8965 18.552 31.9279 18.4884 31.9279 18.4075C31.9279 18.367 31.9165 18.3323 31.8937 18.3034C31.8736 18.2716 31.8365 18.2426 31.7822 18.2166C31.7279 18.1906 31.6822 18.1718 31.6451 18.1602C31.6079 18.1487 31.5465 18.1299 31.4608 18.1039L31.4222 18.0908C31.3422 18.0677 31.2737 18.046 31.2165 18.0258C31.1622 18.0026 31.1008 17.9723 31.0322 17.9347C30.9636 17.8971 30.9079 17.8566 30.8651 17.8133C30.8222 17.767 30.7865 17.7092 30.7579 17.6398C30.7294 17.5704 30.7151 17.4923 30.7151 17.4055C30.7151 17.1945 30.7908 17.0253 30.9422 16.8981C31.0965 16.7708 31.2894 16.7072 31.5208 16.7072C31.8151 16.7072 32.0922 16.794 32.3522 16.9675L32.1465 17.3405C31.9122 17.1959 31.6994 17.1236 31.5079 17.1236C31.4079 17.1236 31.3294 17.1453 31.2722 17.1887C31.2179 17.232 31.1908 17.2899 31.1908 17.3622C31.1908 17.4113 31.2151 17.4561 31.2637 17.4966C31.3151 17.5371 31.3651 17.5675 31.4137 17.5877C31.4651 17.6051 31.5465 17.6325 31.6579 17.6701C31.6637 17.673 31.6708 17.6759 31.6794 17.6788C31.6879 17.6817 31.6951 17.6831 31.7008 17.6831C31.8008 17.7149 31.8851 17.7467 31.9537 17.7786C32.0222 17.8075 32.0937 17.8479 32.1679 17.9C32.2451 17.952 32.3036 18.0171 32.3436 18.0952C32.3836 18.1704 32.4037 18.2586 32.4037 18.3598C32.4037 18.5911 32.3251 18.7689 32.1679 18.8933C32.0108 19.0176 31.8094 19.0798 31.5637 19.0798Z" fill="#25262A"/>
<path d="M33.1689 19.7304V16.7463H33.6875V17.1279C33.8875 16.8417 34.1432 16.6986 34.4546 16.6986C34.7403 16.6986 34.9875 16.807 35.196 17.0239C35.4046 17.2378 35.5089 17.5284 35.5089 17.8957C35.5089 18.2571 35.4046 18.5463 35.196 18.7631C34.9875 18.9771 34.7403 19.0841 34.4546 19.0841C34.1432 19.0841 33.8875 18.9496 33.6875 18.6807V19.7304H33.1689ZM34.3346 18.6287C34.5175 18.6287 34.6703 18.5607 34.7932 18.4248C34.9189 18.2889 34.9817 18.1096 34.9817 17.887C34.9817 17.6701 34.9189 17.4937 34.7932 17.3578C34.6675 17.2219 34.5146 17.154 34.3346 17.154C34.1546 17.154 33.9989 17.2234 33.8675 17.3622C33.7389 17.501 33.6746 17.6788 33.6746 17.8957C33.6746 18.1096 33.7389 18.286 33.8675 18.4248C33.9989 18.5607 34.1546 18.6287 34.3346 18.6287Z" fill="#25262A"/>
<path d="M37.3152 19.0884C36.9838 19.0884 36.7066 18.9771 36.4838 18.7545C36.2638 18.5318 36.1538 18.2441 36.1538 17.8913C36.1538 17.5588 36.2581 17.2769 36.4667 17.0455C36.6752 16.8142 36.9395 16.6986 37.2595 16.6986C37.6024 16.6986 37.8681 16.8171 38.0566 17.0542C38.2481 17.2884 38.3438 17.5805 38.3438 17.9304C38.3438 17.994 38.3409 18.0431 38.3352 18.0778H36.6724C36.7009 18.26 36.7738 18.4031 36.8909 18.5072C37.0081 18.6084 37.1524 18.659 37.3238 18.659C37.5466 18.659 37.7509 18.5679 37.9366 18.3858L38.2409 18.659C38.0066 18.9453 37.6981 19.0884 37.3152 19.0884ZM36.6681 17.7308H37.8295C37.8124 17.5545 37.7538 17.4099 37.6538 17.2971C37.5538 17.1843 37.4209 17.1279 37.2552 17.1279C37.0981 17.1279 36.9666 17.1843 36.8609 17.2971C36.7552 17.407 36.6909 17.5516 36.6681 17.7308Z" fill="#25262A"/>
<path d="M40.1484 19.0884C39.8141 19.0884 39.5355 18.9728 39.3127 18.7414C39.0898 18.5101 38.9784 18.2282 38.9784 17.8957C38.9784 17.566 39.0898 17.2841 39.3127 17.0499C39.5384 16.8157 39.8184 16.6986 40.1527 16.6986C40.5184 16.6986 40.8198 16.8301 41.057 17.0933L40.7355 17.4446C40.5555 17.2537 40.3598 17.1583 40.1484 17.1583C39.9627 17.1583 39.807 17.2306 39.6812 17.3752C39.5584 17.5169 39.497 17.6904 39.497 17.8957C39.497 18.1039 39.5598 18.2788 39.6855 18.4205C39.8141 18.5622 39.977 18.633 40.1741 18.633C40.3827 18.633 40.5784 18.5376 40.7612 18.3467L41.0741 18.659C40.9512 18.7978 40.817 18.9048 40.6712 18.98C40.5284 19.0523 40.3541 19.0884 40.1484 19.0884Z" fill="#25262A"/>
<path d="M41.7977 16.3949V15.8961H42.3549V16.3949H41.7977ZM41.8191 19.0364V16.7463H42.3377V19.0364H41.8191Z" fill="#25262A"/>
<path d="M45.1521 19.0364H44.6378V18.7545C44.455 18.9742 44.2107 19.0841 43.905 19.0841C43.6792 19.0841 43.4878 19.0219 43.3307 18.8976C43.1764 18.7704 43.0992 18.594 43.0992 18.3684C43.0992 18.1226 43.1835 17.9361 43.3521 17.8089C43.5207 17.6817 43.7421 17.6181 44.0164 17.6181C44.2364 17.6181 44.445 17.6499 44.6421 17.7135V17.6701C44.6421 17.5111 44.5935 17.3896 44.4964 17.3058C44.4021 17.2219 44.265 17.18 44.085 17.18C43.8792 17.18 43.6635 17.2277 43.4378 17.3231L43.2964 16.9024C43.5764 16.7752 43.8635 16.7116 44.1578 16.7116C44.4864 16.7116 44.7335 16.7954 44.8992 16.9631C45.0678 17.1308 45.1521 17.3694 45.1521 17.6788V19.0364ZM44.6507 18.2079V18.0778C44.4964 18.0171 44.3235 17.9867 44.1321 17.9867C43.9692 17.9867 43.8421 18.0186 43.7507 18.0822C43.6592 18.1458 43.6135 18.2354 43.6135 18.3511C43.6135 18.4552 43.655 18.5376 43.7378 18.5983C43.8207 18.659 43.925 18.6894 44.0507 18.6894C44.225 18.6894 44.3678 18.6446 44.4792 18.5549C44.5935 18.4653 44.6507 18.3496 44.6507 18.2079Z" fill="#25262A"/>
<path d="M46.037 19.0364V15.8701H46.5555V19.0364H46.037Z" fill="#25262A"/>
<path d="M48.2299 19.0754C47.7956 19.0754 47.5785 18.8513 47.5785 18.4031V17.1973H47.2913V16.7463H47.5785V16.1173H48.0971V16.7463H48.7056V17.1973H48.0971V18.3207C48.0971 18.5116 48.1899 18.607 48.3756 18.607C48.4871 18.607 48.5942 18.581 48.6971 18.5289V18.9583C48.5599 19.0364 48.4042 19.0754 48.2299 19.0754Z" fill="#25262A"/>
<path d="M49.9301 19.7434C49.7415 19.7434 49.563 19.6971 49.3944 19.6046L49.5701 19.2142C49.6758 19.272 49.7773 19.301 49.8744 19.301C49.9487 19.301 50.0101 19.2807 50.0587 19.2402C50.1073 19.2026 50.153 19.1347 50.1958 19.0364L49.253 16.7463H49.8058L50.4487 18.4465L51.0358 16.7463H51.5758L50.6758 19.1014C50.5844 19.3357 50.483 19.5005 50.3715 19.5959C50.2601 19.6942 50.113 19.7434 49.9301 19.7434Z" fill="#25262A"/>
<path d="M53.7813 19.0364V16.7463H54.2956V17.8436L55.2813 16.7463H55.8899L55.0113 17.7092L55.9628 19.0364H55.3499L54.6642 18.0908L54.2956 18.4855V19.0364H53.7813Z" fill="#25262A"/>
<path d="M57.5059 19.0884C57.163 19.0884 56.8773 18.9728 56.6487 18.7414C56.4201 18.5101 56.3059 18.2282 56.3059 17.8957C56.3059 17.5631 56.4216 17.2812 56.653 17.0499C56.8844 16.8157 57.1716 16.6986 57.5144 16.6986C57.8573 16.6986 58.143 16.8142 58.3716 17.0455C58.603 17.2769 58.7187 17.5602 58.7187 17.8957C58.7187 18.2253 58.603 18.5072 58.3716 18.7414C58.1401 18.9728 57.8516 19.0884 57.5059 19.0884ZM57.5144 18.633C57.7201 18.633 57.8859 18.5622 58.0116 18.4205C58.1373 18.2788 58.2001 18.1039 58.2001 17.8957C58.2001 17.6904 58.1344 17.5169 58.003 17.3752C57.8716 17.2306 57.7059 17.1583 57.5059 17.1583C57.303 17.1583 57.1387 17.2292 57.013 17.3708C56.8873 17.5125 56.8244 17.6875 56.8244 17.8957C56.8244 18.0981 56.8901 18.2716 57.0216 18.4161C57.153 18.5607 57.3173 18.633 57.5144 18.633Z" fill="#25262A"/>
<path d="M60.8049 19.7304V18.8716C60.6678 19.0046 60.4949 19.0711 60.2864 19.0711C60.0121 19.0711 59.7906 18.967 59.6221 18.7588C59.4535 18.5477 59.3692 18.2586 59.3692 17.8913C59.3692 17.527 59.4535 17.2393 59.6221 17.0282C59.7935 16.8171 60.0163 16.7116 60.2906 16.7116C60.4878 16.7116 60.6592 16.7882 60.8049 16.9414V16.0002H61.3235V16.9414C61.4692 16.7882 61.6406 16.7116 61.8378 16.7116C62.1121 16.7116 62.3335 16.8186 62.5021 17.0325C62.6735 17.2436 62.7592 17.5313 62.7592 17.8957C62.7592 18.2629 62.6749 18.5506 62.5064 18.7588C62.3378 18.967 62.1164 19.0711 61.8421 19.0711C61.6335 19.0711 61.4606 19.0046 61.3235 18.8716V19.7304H60.8049ZM60.4406 18.633C60.5692 18.633 60.6906 18.5824 60.8049 18.4812V17.3188C60.6906 17.2118 60.5692 17.1583 60.4406 17.1583C60.2635 17.1583 60.1278 17.2248 60.0335 17.3578C59.9392 17.4908 59.8921 17.6716 59.8921 17.9C59.8921 18.1313 59.9378 18.312 60.0292 18.4422C60.1235 18.5694 60.2606 18.633 60.4406 18.633ZM61.6921 18.633C61.8721 18.633 62.0078 18.5694 62.0992 18.4422C62.1906 18.312 62.2364 18.1299 62.2364 17.8957C62.2364 17.6701 62.1892 17.4908 62.0949 17.3578C62.0035 17.2248 61.8692 17.1583 61.6921 17.1583C61.5721 17.1583 61.4492 17.2118 61.3235 17.3188V18.4812C61.4378 18.5824 61.5606 18.633 61.6921 18.633Z" fill="#25262A"/>
<path d="M64.5688 19.0884C64.2373 19.0884 63.9602 18.9771 63.7373 18.7545C63.5173 18.5318 63.4073 18.2441 63.4073 17.8913C63.4073 17.5588 63.5116 17.2769 63.7202 17.0455C63.9288 16.8142 64.193 16.6986 64.513 16.6986C64.8559 16.6986 65.1216 16.8171 65.3102 17.0542C65.5016 17.2884 65.5973 17.5805 65.5973 17.9304C65.5973 17.994 65.5945 18.0431 65.5888 18.0778H63.9259C63.9545 18.26 64.0273 18.4031 64.1445 18.5072C64.2616 18.6084 64.4059 18.659 64.5773 18.659C64.8002 18.659 65.0045 18.5679 65.1902 18.3858L65.4945 18.659C65.2602 18.9453 64.9516 19.0884 64.5688 19.0884ZM63.9216 17.7308H65.083C65.0659 17.5545 65.0073 17.4099 64.9073 17.2971C64.8073 17.1843 64.6745 17.1279 64.5088 17.1279C64.3516 17.1279 64.2202 17.1843 64.1145 17.2971C64.0088 17.407 63.9445 17.5516 63.9216 17.7308Z" fill="#25262A"/>
</svg>
